<mxfile host="app.diagrams.net" modified="2021-10-19T21:44:10.911Z" agent="5.0 (Windows NT 10.0; Win64; x64) AppleWebKit/537.36 (KHTML, like Gecko) Chrome/93.0.4577.82 Safari/537.36 OPR/79.0.4143.72" etag="chq1uy_4CxYnwzzCH2gv" version="15.5.6" type="github">
  <diagram id="C5RBs43oDa-KdzZeNtuy" name="Page-1">
    <mxGraphModel dx="1382" dy="805" grid="1" gridSize="10" guides="1" tooltips="1" connect="1" arrows="1" fold="1" page="1" pageScale="1" pageWidth="1169" pageHeight="827" math="0" shadow="0">
      <root>
        <mxCell id="WIyWlLk6GJQsqaUBKTNV-0" />
        <mxCell id="WIyWlLk6GJQsqaUBKTNV-1" parent="WIyWlLk6GJQsqaUBKTNV-0" />
        <mxCell id="qFJDonG3rtiuqCh89oeF-80" style="edgeStyle=orthogonalEdgeStyle;rounded=0;orthogonalLoop=1;jettySize=auto;html=1;exitX=1;exitY=0.5;exitDx=0;exitDy=0;entryX=1;entryY=0.5;entryDx=0;entryDy=0;" edge="1" parent="WIyWlLk6GJQsqaUBKTNV-1" source="WIyWlLk6GJQsqaUBKTNV-3" target="qFJDonG3rtiuqCh89oeF-7">
          <mxGeometry relative="1" as="geometry" />
        </mxCell>
        <mxCell id="WIyWlLk6GJQsqaUBKTNV-3" value="Inserir&lt;br&gt;Cadastros" style="rounded=1;whiteSpace=wrap;html=1;fontSize=12;glass=0;strokeWidth=1;shadow=0;" parent="WIyWlLk6GJQsqaUBKTNV-1" vertex="1">
          <mxGeometry x="30" y="370" width="150" height="70" as="geometry" />
        </mxCell>
        <mxCell id="qFJDonG3rtiuqCh89oeF-82" style="edgeStyle=orthogonalEdgeStyle;rounded=0;orthogonalLoop=1;jettySize=auto;html=1;exitX=1;exitY=0.5;exitDx=0;exitDy=0;entryX=0.158;entryY=1.033;entryDx=0;entryDy=0;entryPerimeter=0;" edge="1" parent="WIyWlLk6GJQsqaUBKTNV-1" source="WIyWlLk6GJQsqaUBKTNV-7" target="qFJDonG3rtiuqCh89oeF-74">
          <mxGeometry relative="1" as="geometry" />
        </mxCell>
        <mxCell id="WIyWlLk6GJQsqaUBKTNV-7" value="Insira Dados (Nome, CNPJ etc.)" style="rounded=1;whiteSpace=wrap;html=1;fontSize=12;glass=0;strokeWidth=1;shadow=0;" parent="WIyWlLk6GJQsqaUBKTNV-1" vertex="1">
          <mxGeometry x="410" y="150" width="120" height="45" as="geometry" />
        </mxCell>
        <mxCell id="qFJDonG3rtiuqCh89oeF-37" style="edgeStyle=orthogonalEdgeStyle;rounded=0;orthogonalLoop=1;jettySize=auto;html=1;entryX=0;entryY=0.5;entryDx=0;entryDy=0;" edge="1" parent="WIyWlLk6GJQsqaUBKTNV-1" source="qFJDonG3rtiuqCh89oeF-6" target="qFJDonG3rtiuqCh89oeF-30">
          <mxGeometry relative="1" as="geometry" />
        </mxCell>
        <mxCell id="qFJDonG3rtiuqCh89oeF-78" style="edgeStyle=orthogonalEdgeStyle;rounded=0;orthogonalLoop=1;jettySize=auto;html=1;exitX=0.5;exitY=1;exitDx=0;exitDy=0;entryX=0.5;entryY=1;entryDx=0;entryDy=0;" edge="1" parent="WIyWlLk6GJQsqaUBKTNV-1" source="qFJDonG3rtiuqCh89oeF-6" target="qFJDonG3rtiuqCh89oeF-33">
          <mxGeometry relative="1" as="geometry" />
        </mxCell>
        <mxCell id="qFJDonG3rtiuqCh89oeF-6" value="É um produto?" style="rhombus;whiteSpace=wrap;html=1;shadow=0;fontFamily=Helvetica;fontSize=12;align=center;strokeWidth=1;spacing=6;spacingTop=-4;direction=west;" vertex="1" parent="WIyWlLk6GJQsqaUBKTNV-1">
          <mxGeometry x="550" y="522.5" width="100" height="105" as="geometry" />
        </mxCell>
        <mxCell id="qFJDonG3rtiuqCh89oeF-17" style="edgeStyle=orthogonalEdgeStyle;rounded=0;orthogonalLoop=1;jettySize=auto;html=1;exitX=0.5;exitY=1;exitDx=0;exitDy=0;entryX=0.5;entryY=1;entryDx=0;entryDy=0;" edge="1" parent="WIyWlLk6GJQsqaUBKTNV-1" source="qFJDonG3rtiuqCh89oeF-7" target="qFJDonG3rtiuqCh89oeF-19">
          <mxGeometry relative="1" as="geometry">
            <mxPoint x="560" y="120" as="targetPoint" />
          </mxGeometry>
        </mxCell>
        <mxCell id="qFJDonG3rtiuqCh89oeF-48" style="edgeStyle=orthogonalEdgeStyle;rounded=0;orthogonalLoop=1;jettySize=auto;html=1;entryX=0.5;entryY=0;entryDx=0;entryDy=0;" edge="1" parent="WIyWlLk6GJQsqaUBKTNV-1" source="qFJDonG3rtiuqCh89oeF-7" target="qFJDonG3rtiuqCh89oeF-47">
          <mxGeometry relative="1" as="geometry" />
        </mxCell>
        <mxCell id="qFJDonG3rtiuqCh89oeF-7" value="É uma entidade?" style="rhombus;whiteSpace=wrap;html=1;shadow=0;fontFamily=Helvetica;fontSize=12;align=center;strokeWidth=1;spacing=6;spacingTop=-4;direction=west;" vertex="1" parent="WIyWlLk6GJQsqaUBKTNV-1">
          <mxGeometry x="310" y="352.5" width="100" height="105" as="geometry" />
        </mxCell>
        <mxCell id="qFJDonG3rtiuqCh89oeF-81" style="edgeStyle=orthogonalEdgeStyle;rounded=0;orthogonalLoop=1;jettySize=auto;html=1;exitX=0.5;exitY=0;exitDx=0;exitDy=0;entryX=0;entryY=0.5;entryDx=0;entryDy=0;" edge="1" parent="WIyWlLk6GJQsqaUBKTNV-1" source="qFJDonG3rtiuqCh89oeF-19" target="WIyWlLk6GJQsqaUBKTNV-7">
          <mxGeometry relative="1" as="geometry" />
        </mxCell>
        <mxCell id="qFJDonG3rtiuqCh89oeF-19" value="Sim" style="ellipse;whiteSpace=wrap;html=1;aspect=fixed;" vertex="1" parent="WIyWlLk6GJQsqaUBKTNV-1">
          <mxGeometry x="335" y="240" width="50" height="50" as="geometry" />
        </mxCell>
        <mxCell id="qFJDonG3rtiuqCh89oeF-38" style="edgeStyle=orthogonalEdgeStyle;rounded=0;orthogonalLoop=1;jettySize=auto;html=1;entryX=1;entryY=0.5;entryDx=0;entryDy=0;" edge="1" parent="WIyWlLk6GJQsqaUBKTNV-1" source="qFJDonG3rtiuqCh89oeF-30" target="qFJDonG3rtiuqCh89oeF-39">
          <mxGeometry relative="1" as="geometry">
            <mxPoint x="820" y="485" as="targetPoint" />
          </mxGeometry>
        </mxCell>
        <mxCell id="qFJDonG3rtiuqCh89oeF-30" value="Não" style="ellipse;whiteSpace=wrap;html=1;aspect=fixed;" vertex="1" parent="WIyWlLk6GJQsqaUBKTNV-1">
          <mxGeometry x="730" y="547.5" width="55" height="55" as="geometry" />
        </mxCell>
        <mxCell id="qFJDonG3rtiuqCh89oeF-79" style="edgeStyle=orthogonalEdgeStyle;rounded=0;orthogonalLoop=1;jettySize=auto;html=1;exitX=0.5;exitY=0;exitDx=0;exitDy=0;" edge="1" parent="WIyWlLk6GJQsqaUBKTNV-1" source="qFJDonG3rtiuqCh89oeF-33" target="qFJDonG3rtiuqCh89oeF-36">
          <mxGeometry relative="1" as="geometry" />
        </mxCell>
        <mxCell id="qFJDonG3rtiuqCh89oeF-33" value="Sim" style="ellipse;whiteSpace=wrap;html=1;aspect=fixed;" vertex="1" parent="WIyWlLk6GJQsqaUBKTNV-1">
          <mxGeometry x="575" y="380" width="50" height="50" as="geometry" />
        </mxCell>
        <mxCell id="qFJDonG3rtiuqCh89oeF-83" style="edgeStyle=orthogonalEdgeStyle;rounded=0;orthogonalLoop=1;jettySize=auto;html=1;exitX=0.5;exitY=0;exitDx=0;exitDy=0;entryX=0.5;entryY=1;entryDx=0;entryDy=0;" edge="1" parent="WIyWlLk6GJQsqaUBKTNV-1" source="qFJDonG3rtiuqCh89oeF-36" target="qFJDonG3rtiuqCh89oeF-74">
          <mxGeometry relative="1" as="geometry">
            <Array as="points">
              <mxPoint x="600" y="250" />
              <mxPoint x="800" y="250" />
            </Array>
          </mxGeometry>
        </mxCell>
        <mxCell id="qFJDonG3rtiuqCh89oeF-36" value="Insira detalhes&lt;br&gt;&amp;nbsp;(Tipo, tamanho, destino etc)" style="rounded=1;whiteSpace=wrap;html=1;fontSize=12;glass=0;strokeWidth=1;shadow=0;" vertex="1" parent="WIyWlLk6GJQsqaUBKTNV-1">
          <mxGeometry x="510" y="280" width="180" height="40" as="geometry" />
        </mxCell>
        <mxCell id="qFJDonG3rtiuqCh89oeF-52" value="" style="edgeStyle=orthogonalEdgeStyle;rounded=0;orthogonalLoop=1;jettySize=auto;html=1;entryX=0;entryY=0.5;entryDx=0;entryDy=0;" edge="1" parent="WIyWlLk6GJQsqaUBKTNV-1" source="qFJDonG3rtiuqCh89oeF-39" target="qFJDonG3rtiuqCh89oeF-61">
          <mxGeometry relative="1" as="geometry">
            <mxPoint x="1035" y="465" as="targetPoint" />
          </mxGeometry>
        </mxCell>
        <mxCell id="qFJDonG3rtiuqCh89oeF-76" style="edgeStyle=orthogonalEdgeStyle;rounded=0;orthogonalLoop=1;jettySize=auto;html=1;exitX=0.5;exitY=1;exitDx=0;exitDy=0;entryX=0.5;entryY=1;entryDx=0;entryDy=0;" edge="1" parent="WIyWlLk6GJQsqaUBKTNV-1" source="qFJDonG3rtiuqCh89oeF-39" target="qFJDonG3rtiuqCh89oeF-41">
          <mxGeometry relative="1" as="geometry" />
        </mxCell>
        <mxCell id="qFJDonG3rtiuqCh89oeF-39" value="É um doador?" style="rhombus;whiteSpace=wrap;html=1;shadow=0;fontFamily=Helvetica;fontSize=12;align=center;strokeWidth=1;spacing=6;spacingTop=-4;direction=west;" vertex="1" parent="WIyWlLk6GJQsqaUBKTNV-1">
          <mxGeometry x="855" y="522.5" width="100" height="105" as="geometry" />
        </mxCell>
        <mxCell id="qFJDonG3rtiuqCh89oeF-77" style="edgeStyle=orthogonalEdgeStyle;rounded=0;orthogonalLoop=1;jettySize=auto;html=1;exitX=0.5;exitY=0;exitDx=0;exitDy=0;entryX=0.5;entryY=1;entryDx=0;entryDy=0;" edge="1" parent="WIyWlLk6GJQsqaUBKTNV-1" source="qFJDonG3rtiuqCh89oeF-41" target="qFJDonG3rtiuqCh89oeF-43">
          <mxGeometry relative="1" as="geometry" />
        </mxCell>
        <mxCell id="qFJDonG3rtiuqCh89oeF-41" value="Sim" style="ellipse;whiteSpace=wrap;html=1;aspect=fixed;" vertex="1" parent="WIyWlLk6GJQsqaUBKTNV-1">
          <mxGeometry x="880" y="380" width="50" height="50" as="geometry" />
        </mxCell>
        <mxCell id="qFJDonG3rtiuqCh89oeF-84" style="edgeStyle=orthogonalEdgeStyle;rounded=0;orthogonalLoop=1;jettySize=auto;html=1;exitX=0.5;exitY=0;exitDx=0;exitDy=0;entryX=0.75;entryY=1;entryDx=0;entryDy=0;" edge="1" parent="WIyWlLk6GJQsqaUBKTNV-1" source="qFJDonG3rtiuqCh89oeF-43" target="qFJDonG3rtiuqCh89oeF-74">
          <mxGeometry relative="1" as="geometry" />
        </mxCell>
        <mxCell id="qFJDonG3rtiuqCh89oeF-43" value="Insira dados (ID, Idade, tipo de doação)" style="rounded=1;whiteSpace=wrap;html=1;fontSize=12;glass=0;strokeWidth=1;shadow=0;" vertex="1" parent="WIyWlLk6GJQsqaUBKTNV-1">
          <mxGeometry x="815" y="280" width="180" height="40" as="geometry" />
        </mxCell>
        <mxCell id="qFJDonG3rtiuqCh89oeF-49" style="edgeStyle=orthogonalEdgeStyle;rounded=0;orthogonalLoop=1;jettySize=auto;html=1;entryX=1;entryY=0.5;entryDx=0;entryDy=0;" edge="1" parent="WIyWlLk6GJQsqaUBKTNV-1" source="qFJDonG3rtiuqCh89oeF-47" target="qFJDonG3rtiuqCh89oeF-6">
          <mxGeometry relative="1" as="geometry" />
        </mxCell>
        <mxCell id="qFJDonG3rtiuqCh89oeF-47" value="Não" style="ellipse;whiteSpace=wrap;html=1;aspect=fixed;" vertex="1" parent="WIyWlLk6GJQsqaUBKTNV-1">
          <mxGeometry x="335" y="550" width="50" height="50" as="geometry" />
        </mxCell>
        <mxCell id="qFJDonG3rtiuqCh89oeF-67" style="edgeStyle=orthogonalEdgeStyle;rounded=0;orthogonalLoop=1;jettySize=auto;html=1;exitX=0.5;exitY=0;exitDx=0;exitDy=0;entryX=0.5;entryY=1;entryDx=0;entryDy=0;" edge="1" parent="WIyWlLk6GJQsqaUBKTNV-1" source="qFJDonG3rtiuqCh89oeF-61" target="qFJDonG3rtiuqCh89oeF-64">
          <mxGeometry relative="1" as="geometry" />
        </mxCell>
        <mxCell id="qFJDonG3rtiuqCh89oeF-61" value="Não" style="ellipse;whiteSpace=wrap;html=1;aspect=fixed;" vertex="1" parent="WIyWlLk6GJQsqaUBKTNV-1">
          <mxGeometry x="1060" y="547.5" width="55" height="55" as="geometry" />
        </mxCell>
        <mxCell id="qFJDonG3rtiuqCh89oeF-64" value="Retorne" style="shape=parallelogram;perimeter=parallelogramPerimeter;whiteSpace=wrap;html=1;fixedSize=1;" vertex="1" parent="WIyWlLk6GJQsqaUBKTNV-1">
          <mxGeometry x="1027.5" y="397.5" width="120" height="60" as="geometry" />
        </mxCell>
        <mxCell id="qFJDonG3rtiuqCh89oeF-70" style="edgeStyle=orthogonalEdgeStyle;rounded=0;orthogonalLoop=1;jettySize=auto;html=1;exitX=0.5;exitY=1;exitDx=0;exitDy=0;entryX=0.5;entryY=0;entryDx=0;entryDy=0;" edge="1" parent="WIyWlLk6GJQsqaUBKTNV-1" source="qFJDonG3rtiuqCh89oeF-69" target="qFJDonG3rtiuqCh89oeF-71">
          <mxGeometry relative="1" as="geometry">
            <mxPoint x="105" y="150" as="targetPoint" />
          </mxGeometry>
        </mxCell>
        <mxCell id="qFJDonG3rtiuqCh89oeF-69" value="PRINCIPAL" style="rounded=0;whiteSpace=wrap;html=1;" vertex="1" parent="WIyWlLk6GJQsqaUBKTNV-1">
          <mxGeometry x="35" y="40" width="140" height="60" as="geometry" />
        </mxCell>
        <mxCell id="qFJDonG3rtiuqCh89oeF-72" style="edgeStyle=orthogonalEdgeStyle;rounded=0;orthogonalLoop=1;jettySize=auto;html=1;exitX=0.5;exitY=1;exitDx=0;exitDy=0;entryX=0.5;entryY=0;entryDx=0;entryDy=0;" edge="1" parent="WIyWlLk6GJQsqaUBKTNV-1" source="qFJDonG3rtiuqCh89oeF-71" target="WIyWlLk6GJQsqaUBKTNV-3">
          <mxGeometry relative="1" as="geometry" />
        </mxCell>
        <mxCell id="qFJDonG3rtiuqCh89oeF-91" style="edgeStyle=orthogonalEdgeStyle;rounded=0;orthogonalLoop=1;jettySize=auto;html=1;exitX=1;exitY=0.5;exitDx=0;exitDy=0;entryX=0.5;entryY=1;entryDx=0;entryDy=0;" edge="1" parent="WIyWlLk6GJQsqaUBKTNV-1" source="qFJDonG3rtiuqCh89oeF-71" target="qFJDonG3rtiuqCh89oeF-90">
          <mxGeometry relative="1" as="geometry" />
        </mxCell>
        <mxCell id="qFJDonG3rtiuqCh89oeF-71" value="Gerenciamento" style="rounded=1;whiteSpace=wrap;html=1;fontSize=12;glass=0;strokeWidth=1;shadow=0;" vertex="1" parent="WIyWlLk6GJQsqaUBKTNV-1">
          <mxGeometry x="30" y="180" width="150" height="70" as="geometry" />
        </mxCell>
        <mxCell id="qFJDonG3rtiuqCh89oeF-74" value="Banco de Dados" style="shape=parallelogram;perimeter=parallelogramPerimeter;whiteSpace=wrap;html=1;fixedSize=1;" vertex="1" parent="WIyWlLk6GJQsqaUBKTNV-1">
          <mxGeometry x="680" y="30" width="240" height="90" as="geometry" />
        </mxCell>
        <mxCell id="qFJDonG3rtiuqCh89oeF-96" style="edgeStyle=orthogonalEdgeStyle;rounded=0;orthogonalLoop=1;jettySize=auto;html=1;exitX=1;exitY=0.5;exitDx=0;exitDy=0;entryX=0;entryY=0;entryDx=0;entryDy=0;" edge="1" parent="WIyWlLk6GJQsqaUBKTNV-1" source="qFJDonG3rtiuqCh89oeF-87" target="qFJDonG3rtiuqCh89oeF-94">
          <mxGeometry relative="1" as="geometry" />
        </mxCell>
        <mxCell id="qFJDonG3rtiuqCh89oeF-87" value="Editar" style="ellipse;whiteSpace=wrap;html=1;aspect=fixed;" vertex="1" parent="WIyWlLk6GJQsqaUBKTNV-1">
          <mxGeometry x="470" y="10" width="50" height="50" as="geometry" />
        </mxCell>
        <mxCell id="qFJDonG3rtiuqCh89oeF-95" style="edgeStyle=orthogonalEdgeStyle;rounded=0;orthogonalLoop=1;jettySize=auto;html=1;exitX=1;exitY=0.5;exitDx=0;exitDy=0;entryX=0;entryY=1;entryDx=0;entryDy=0;" edge="1" parent="WIyWlLk6GJQsqaUBKTNV-1" source="qFJDonG3rtiuqCh89oeF-88" target="qFJDonG3rtiuqCh89oeF-94">
          <mxGeometry relative="1" as="geometry" />
        </mxCell>
        <mxCell id="qFJDonG3rtiuqCh89oeF-88" value="Visualizar" style="ellipse;whiteSpace=wrap;html=1;aspect=fixed;" vertex="1" parent="WIyWlLk6GJQsqaUBKTNV-1">
          <mxGeometry x="470" y="80" width="50" height="50" as="geometry" />
        </mxCell>
        <mxCell id="qFJDonG3rtiuqCh89oeF-92" style="edgeStyle=orthogonalEdgeStyle;rounded=0;orthogonalLoop=1;jettySize=auto;html=1;exitX=1;exitY=0;exitDx=0;exitDy=0;entryX=0;entryY=0.5;entryDx=0;entryDy=0;" edge="1" parent="WIyWlLk6GJQsqaUBKTNV-1" source="qFJDonG3rtiuqCh89oeF-90" target="qFJDonG3rtiuqCh89oeF-87">
          <mxGeometry relative="1" as="geometry" />
        </mxCell>
        <mxCell id="qFJDonG3rtiuqCh89oeF-93" style="edgeStyle=orthogonalEdgeStyle;rounded=0;orthogonalLoop=1;jettySize=auto;html=1;exitX=1;exitY=1;exitDx=0;exitDy=0;entryX=0;entryY=0.5;entryDx=0;entryDy=0;" edge="1" parent="WIyWlLk6GJQsqaUBKTNV-1" source="qFJDonG3rtiuqCh89oeF-90" target="qFJDonG3rtiuqCh89oeF-88">
          <mxGeometry relative="1" as="geometry" />
        </mxCell>
        <mxCell id="qFJDonG3rtiuqCh89oeF-90" value="Visualizar ou Editar?" style="rhombus;whiteSpace=wrap;html=1;" vertex="1" parent="WIyWlLk6GJQsqaUBKTNV-1">
          <mxGeometry x="230" y="30" width="80" height="80" as="geometry" />
        </mxCell>
        <mxCell id="qFJDonG3rtiuqCh89oeF-97" style="edgeStyle=orthogonalEdgeStyle;rounded=0;orthogonalLoop=1;jettySize=auto;html=1;exitX=1;exitY=0.5;exitDx=0;exitDy=0;entryX=0;entryY=0.5;entryDx=0;entryDy=0;" edge="1" parent="WIyWlLk6GJQsqaUBKTNV-1" source="qFJDonG3rtiuqCh89oeF-94" target="qFJDonG3rtiuqCh89oeF-74">
          <mxGeometry relative="1" as="geometry" />
        </mxCell>
        <mxCell id="qFJDonG3rtiuqCh89oeF-94" value="Inserir Usuário e Senha" style="rhombus;whiteSpace=wrap;html=1;" vertex="1" parent="WIyWlLk6GJQsqaUBKTNV-1">
          <mxGeometry x="560" y="35" width="80" height="80" as="geometry" />
        </mxCell>
      </root>
    </mxGraphModel>
  </diagram>
</mxfile>
